# Blender v2.79 (sub 0) OBJ File: ''
# www.blender.org
mtllib model.mtl
o body
v 0.096700 0.762200 0.000000
v 0.119800 0.750800 0.032000
v 0.105500 0.750800 0.086100
v 0.101300 0.833100 0.011300
v 0.180800 0.655800 0.144200
v 0.000000 0.655800 0.216900
v 0.176200 0.701700 0.000000
v 0.143100 0.814700 0.011300
v 0.000000 0.750800 0.128400
v -0.105300 0.750800 0.086100
v 0.216700 0.655800 0.000000
v 0.234500 0.505800 0.203100
v 0.285300 0.505800 0.000000
v 0.000000 0.505800 0.299100
v 0.248000 0.350800 0.219200
v 0.000000 0.350800 0.322800
v -0.247800 0.350800 0.219200
v -0.234400 0.505800 0.203100
v -0.302500 0.350800 0.000000
v -0.285300 0.505800 0.000000
v 0.302700 0.350800 0.000000
v 0.216300 0.245800 0.205800
v 0.000000 0.245800 0.297200
v 0.262000 0.245800 0.000000
v 0.128600 0.176000 0.152000
v 0.000000 0.176000 0.205600
v 0.151300 0.176000 0.000000
v 0.000000 0.777700 0.000000
v 0.000000 0.151000 0.000000
v 0.000000 0.750800 -0.128400
v 0.087800 0.750800 -0.087800
v 0.000000 0.655800 -0.223900
v 0.194800 0.505800 -0.186400
v 0.206700 0.350800 -0.200800
v 0.149200 0.655800 -0.153000
v 0.000000 0.350800 -0.290800
v 0.000000 0.505800 -0.273300
v -0.206600 0.350800 -0.200800
v 0.000000 0.245800 -0.262000
v 0.179100 0.245800 -0.179100
v 0.111600 0.176000 -0.119800
v 0.000000 0.176000 -0.174800
v -0.178900 0.245800 -0.179100
v -0.111400 0.176000 -0.119800
v -0.262000 0.245800 0.000000
v -0.151300 0.176000 0.000000
v 0.117300 0.750800 -0.040500
v -0.119800 0.750800 0.032000
v -0.096600 0.762200 0.000000
v -0.101300 0.833100 0.011300
v -0.180800 0.655800 0.144200
v -0.216600 0.655800 0.000000
v -0.176100 0.701700 0.000000
v -0.216300 0.245800 0.205800
v -0.128600 0.176000 0.152000
v -0.143100 0.814700 0.011300
v -0.087700 0.750800 -0.087800
v -0.149200 0.655800 -0.153000
v -0.117300 0.750800 -0.040500
v -0.194800 0.505800 -0.186400
v -0.148900 0.042500 0.011100
v -0.135600 0.052000 0.009500
v -0.102500 0.234500 0.034200
v -0.126700 0.003300 0.001600
v -0.190600 0.068900 0.074500
v -0.176900 0.003300 0.084800
v -0.222300 0.003300 0.122800
v -0.185300 0.234500 -0.027700
v -0.152200 0.052000 -0.002800
v -0.136400 0.070200 -0.008100
v -0.166400 0.234500 0.037700
v -0.204500 0.003300 0.064200
v -0.148100 0.003300 -0.014500
v -0.123400 0.234500 -0.027800
v -0.130000 0.003300 -0.018000
v 0.066200 0.042500 0.032300
v 0.074700 0.052000 0.021100
v 0.114500 0.234500 0.013600
v 0.075600 0.003300 0.008800
v 0.078900 0.068900 0.108600
v 0.095500 0.003300 0.105500
v 0.088400 0.003300 0.166700
v 0.014800 0.234500 0.032300
v 0.054800 0.052000 0.024800
v 0.062500 0.070200 0.009200
v 0.071600 0.234500 0.064400
v 0.062300 0.003300 0.111700
v 0.049800 0.003300 0.013600
v 0.058600 0.234500 -0.014400
v 0.060500 0.003300 -0.002500
v 0.149100 0.042500 0.031100
v 0.152200 0.052000 0.017200
v 0.185500 0.234500 -0.007700
v 0.148300 0.003300 0.005500
v 0.190800 0.068900 0.094500
v 0.204500 0.003300 0.084200
v 0.222500 0.003300 0.142800
v 0.102500 0.234500 0.054200
v 0.135800 0.052000 0.029500
v 0.136400 0.070200 0.011900
v 0.166600 0.234500 0.057700
v 0.176900 0.003300 0.104800
v 0.126700 0.003300 0.021600
v 0.123600 0.234500 -0.007800
v 0.130000 0.003300 0.002000
v -0.051100 0.042500 0.032300
v -0.039700 0.052000 0.024800
v 0.000200 0.234500 0.032300
v -0.034800 0.003300 0.013600
v -0.063700 0.068900 0.108600
v -0.047200 0.003300 0.111700
v -0.073400 0.003300 0.166700
v -0.099500 0.234500 0.013600
v -0.059500 0.052000 0.021100
v -0.047300 0.070200 0.009200
v -0.056400 0.234500 0.064400
v -0.080500 0.003300 0.105500
v -0.060600 0.003300 0.008800
v -0.043400 0.234500 -0.014400
v -0.045500 0.003300 -0.002500
vt 0.109400 0.875000
vt 0.156300 0.804700
vt 0.171900 0.828100
vt 0.140600 0.968800
vt 0.007800 0.656300
vt 0.218800 0.656300
vt 0.312500 0.718800
vt 0.203100 0.945300
vt 0.007800 0.804700
vt 0.156300 0.804700
vt 0.375000 0.656300
vt 0.265600 0.453100
vt 0.468800 0.453100
vt 0.007800 0.453100
vt 0.265600 0.320300
vt 0.007800 0.320300
vt 0.265600 0.320300
vt 0.265600 0.453100
vt 0.492200 0.320300
vt 0.468800 0.453100
vt 0.492200 0.320300
vt 0.234400 0.203100
vt 0.007800 0.203100
vt 0.460900 0.203100
vt 0.140600 0.101600
vt 0.007800 0.101600
vt 0.312500 0.101600
vt 0.007800 0.898500
vt 0.007800 0.035200
vt 0.992200 0.804700
vt 0.875000 0.804700
vt 0.992200 0.656300
vt 0.531300 0.453100
vt 0.765600 0.320300
vt 0.765600 0.453100
vt 0.789100 0.656300
vt 0.625000 0.656300
vt 0.687500 0.718800
vt 0.992200 0.320300
vt 0.992200 0.453100
vt 0.765600 0.320300
vt 0.992200 0.203100
vt 0.507800 0.320300
vt 0.773400 0.203100
vt 0.539100 0.203100
vt 0.859400 0.093800
vt 0.992200 0.093800
vt 0.773400 0.203100
vt 0.859400 0.093800
vt 0.539100 0.203100
vt 0.687500 0.093800
vt 0.828100 0.828100
vt 0.796900 0.945300
vt 0.890600 0.875000
vt 0.859400 0.968800
vt 0.992200 0.898500
vt 0.687500 0.093800
vt 0.992200 0.035200
vt 0.171900 0.828100
vt 0.109400 0.875000
vt 0.140600 0.968800
vt 0.218800 0.656300
vt 0.375000 0.656300
vt 0.312500 0.718800
vt 0.234400 0.203100
vt 0.140600 0.101600
vt 0.460900 0.203100
vt 0.312500 0.101600
vt 0.203100 0.945300
vt 0.875000 0.804700
vt 0.789100 0.656300
vt 0.828100 0.828100
vt 0.687500 0.718800
vt 0.796900 0.945300
vt 0.531300 0.453100
vt 0.765600 0.453100
vt 0.507800 0.320300
vt 0.625000 0.656300
vt 0.890600 0.875000
vt 0.859400 0.968800
vt 0.484400 0.031300
vt 0.515600 0.054700
vt 0.562500 0.187500
vt 0.531300 0.007800
vt 0.406300 0.054700
vt 0.343800 0.007800
vt 0.343800 0.007800
vt 0.562500 0.187500
vt 0.515600 0.054700
vt 0.515600 0.054700
vt 0.429700 0.187500
vt 0.343800 0.007800
vt 0.531300 0.007800
vt 0.562500 0.187500
vt 0.531300 0.007800
vt 0.484400 0.031300
vt 0.515600 0.054700
vt 0.562500 0.187500
vt 0.531300 0.007800
vt 0.406300 0.054700
vt 0.343800 0.007800
vt 0.343800 0.007800
vt 0.562500 0.187500
vt 0.515600 0.054700
vt 0.515600 0.054700
vt 0.429700 0.187500
vt 0.343800 0.007800
vt 0.531300 0.007800
vt 0.562500 0.187500
vt 0.531300 0.007800
vt 0.484400 0.031300
vt 0.515600 0.054700
vt 0.562500 0.187500
vt 0.531300 0.007800
vt 0.406300 0.054700
vt 0.343800 0.007800
vt 0.343800 0.007800
vt 0.562500 0.187500
vt 0.515600 0.054700
vt 0.515600 0.054700
vt 0.429700 0.187500
vt 0.343800 0.007800
vt 0.531300 0.007800
vt 0.562500 0.187500
vt 0.531300 0.007800
vt 0.484400 0.031300
vt 0.515600 0.054700
vt 0.562500 0.187500
vt 0.531300 0.007800
vt 0.406300 0.054700
vt 0.343800 0.007800
vt 0.343800 0.007800
vt 0.562500 0.187500
vt 0.515600 0.054700
vt 0.515600 0.054700
vt 0.429700 0.187500
vt 0.343800 0.007800
vt 0.531300 0.007800
vt 0.562500 0.187500
vt 0.531300 0.007800
vn -0.1971 0.9804 0.0022
vn 0.3924 0.8558 0.3370
vn 0.2604 0.5682 0.7806
vn -0.8139 0.5596 0.1562
vn -0.1971 0.9804 0.0021
vn 0.3924 0.8559 0.3369
vn -0.0001 0.6195 0.7850
vn 0.5966 0.5968 0.5365
vn 0.5966 0.5968 0.5366
vn 0.8006 0.5989 0.0168
vn 0.7968 0.5823 0.1612
vn -0.0002 0.8739 0.4861
vn -0.3922 0.8557 0.3374
vn 0.8542 0.5197 -0.0126
vn 0.8174 0.2964 0.4941
vn 0.9433 0.2579 -0.2092
vn -0.0001 0.3175 0.9483
vn 0.6858 -0.0362 0.7269
vn -0.0001 -0.1126 0.9936
vn -0.6860 -0.0359 0.7267
vn -0.8174 0.2959 0.4942
vn -0.9871 -0.1524 -0.0495
vn -0.9434 0.2575 -0.2089
vn -0.8175 0.2959 0.4942
vn 0.9870 -0.1526 -0.0496
vn 0.6497 -0.5125 0.5615
vn -0.0000 -0.6462 0.7631
vn 0.7064 -0.7037 -0.0759
vn 0.9870 -0.1527 -0.0496
vn 0.6858 -0.0361 0.7269
vn 0.3179 -0.9093 0.2686
vn 0.0000 -0.9279 0.3728
vn 0.3543 -0.9346 -0.0318
vn 0.3179 -0.9093 0.2687
vn -0.0001 1.0000 -0.0073
vn -0.0000 -0.9999 -0.0128
vn -0.0001 0.8833 -0.4687
vn 0.3073 0.8670 -0.3923
vn -0.0000 0.5346 -0.8451
vn 0.6568 -0.0637 -0.7513
vn 0.6246 0.2496 -0.7400
vn 0.6727 0.5454 -0.4999
vn -0.0001 -0.0780 -0.9970
vn -0.0000 0.1847 -0.9828
vn 0.6568 -0.0638 -0.7514
vn -0.6570 -0.0642 -0.7512
vn -0.0001 -0.4768 -0.8790
vn 0.5870 -0.5816 -0.5632
vn 0.6568 -0.0637 -0.7514
vn -0.0002 -0.4768 -0.8790
vn 0.3366 -0.9071 -0.2526
vn -0.0001 -0.8847 -0.4661
vn -0.5871 -0.5815 -0.5632
vn -0.3366 -0.9071 -0.2529
vn -0.7067 -0.7034 -0.0763
vn -0.3543 -0.9346 -0.0321
vn -0.0000 0.5345 -0.8451
vn 0.6246 0.2496 -0.7399
vn 0.3623 0.7008 -0.6145
vn 0.3623 0.7009 -0.6145
vn -0.0001 0.8834 -0.4687
vn 0.7968 0.5823 0.1611
vn -0.2604 0.5673 0.7812
vn -0.3922 0.8558 0.3374
vn 0.1969 0.9804 0.0024
vn 0.8127 0.5613 0.1563
vn -0.5966 0.5970 0.5364
vn -0.8175 0.2959 0.4941
vn -0.8542 0.5198 -0.0126
vn -0.9434 0.2576 -0.2089
vn -0.5966 0.5969 0.5364
vn -0.8009 0.5985 0.0173
vn -0.3923 0.8557 0.3374
vn -0.6501 -0.5119 0.5616
vn -0.6860 -0.0358 0.7267
vn -0.3179 -0.9093 0.2686
vn -0.9871 -0.1525 -0.0495
vn -0.3542 -0.9346 -0.0321
vn -0.7971 0.5819 0.1612
vn -0.7972 0.5818 0.1612
vn -0.3178 -0.9093 0.2687
vn -0.3070 0.8671 -0.3924
vn -0.6727 0.5456 -0.4998
vn -0.3623 0.7008 -0.6146
vn -0.3622 0.7008 -0.6146
vn -0.6247 0.2494 -0.7400
vn 0.1970 0.9804 0.0024
vn -0.5728 -0.0163 0.8195
vn 0.7873 -0.0931 0.6094
vn 0.8199 -0.2107 0.5323
vn -0.5729 -0.0162 0.8195
vn 0.8006 -0.4627 0.3807
vn -0.0646 0.9929 0.1000
vn 0.5970 -0.6180 0.5115
vn -0.4064 -0.6791 0.6112
vn 0.5970 -0.6180 0.5116
vn -0.0646 0.9929 0.0999
vn -0.7795 -0.2117 -0.5895
vn 0.5734 0.0057 -0.8192
vn -0.8522 -0.0899 -0.5154
vn -0.5714 -0.1635 0.8042
vn -0.5443 -0.7948 -0.2683
vn 0.8006 -0.4626 0.3808
vn 0.8007 -0.4626 0.3807
vn -0.5443 -0.7948 -0.2684
vn -0.7103 -0.2694 -0.6503
vn -0.7103 -0.2693 -0.6503
vn -0.5728 -0.0163 0.8196
vn 0.5770 -0.1421 -0.8043
vn 0.5008 -0.4787 -0.7212
vn 0.7873 -0.0931 0.6095
vn 0.5008 -0.4786 -0.7212
vn 0.5734 0.0058 -0.8192
vn 0.1708 -0.0195 0.9851
vn 0.9893 -0.0905 -0.1140
vn 0.9568 -0.2071 -0.2041
vn 0.8453 -0.4596 -0.2725
vn 0.0186 0.9931 0.1154
vn 0.7841 -0.6197 -0.0342
vn 0.1178 -0.6966 0.7077
vn 0.7841 -0.6197 -0.0341
vn -0.9693 -0.2077 0.1318
vn -0.1720 0.0045 -0.9851
vn -0.9713 -0.0903 0.2203
vn 0.1742 -0.1671 0.9704
vn -0.5821 -0.7950 0.1706
vn 0.8453 -0.4597 -0.2724
vn 0.8453 -0.4597 -0.2725
vn -0.9619 -0.2724 0.0225
vn 0.1709 -0.0195 0.9851
vn -0.9619 -0.2724 0.0226
vn -0.1739 -0.1441 -0.9742
vn -0.1487 -0.4857 -0.8614
vn 0.9893 -0.0906 -0.1140
vn 0.9568 -0.2070 -0.2041
vn -0.1739 -0.1440 -0.9742
vn 0.5770 -0.0145 0.8166
vn 0.8492 -0.0881 -0.5207
vn 0.7767 -0.2121 -0.5931
vn 0.6556 -0.4568 -0.6013
vn 0.0669 0.9930 0.0976
vn 0.7041 -0.6191 -0.3477
vn 0.4086 -0.6802 0.6086
vn 0.7041 -0.6191 -0.3478
vn 0.0669 0.9930 0.0977
vn -0.8190 -0.2111 0.5336
vn -0.5750 0.0060 -0.8181
vn -0.7839 -0.0928 0.6140
vn 0.5714 -0.1635 0.8042
vn -0.4607 -0.7945 0.3956
vn -0.8677 -0.2730 0.4154
vn -0.8677 -0.2730 0.4153
vn -0.8677 -0.2729 0.4154
vn -0.5759 -0.1414 -0.8052
vn -0.5751 0.0060 -0.8181
vn -0.5017 -0.4781 -0.7209
vn 0.8492 -0.0882 -0.5207
vn -0.5751 0.0061 -0.8181
vn -0.5017 -0.4782 -0.7208
vn -0.1715 -0.0192 0.9850
vn 0.9708 -0.0912 0.2218
vn 0.9692 -0.2071 0.1332
vn -0.1714 -0.0192 0.9850
vn 0.8874 -0.4605 0.0209
vn -0.0169 0.9931 0.1157
vn 0.7531 -0.6198 0.2209
vn -0.1173 -0.6948 0.7096
vn -0.9562 -0.2079 -0.2061
vn 0.1735 0.0043 -0.9848
vn -0.9893 -0.0890 -0.1159
vn -0.1723 -0.1671 0.9708
vn -0.6062 -0.7948 -0.0264
vn 0.8874 -0.4606 0.0209
vn -0.9166 -0.2699 -0.2950
vn -0.0169 0.9931 0.1156
vn 0.1757 -0.1441 -0.9738
vn 0.9692 -0.2072 0.1332
vn 0.1489 -0.4860 -0.8612
vn 0.1489 -0.4861 -0.8611
vn 0.1757 -0.1440 -0.9739
usemtl TEX_xetim10.001
s 1
f 1/1/1 3/2/2 2/3/3
f 2/3/3 4/4/4 1/1/5
f 3/2/6 6/5/7 5/6/8
f 5/6/9 7/7/10 3/2/6
f 2/3/3 3/2/6 7/7/10
f 7/7/10 8/8/11 2/3/3
f 6/5/7 3/2/2 9/9/12
f 9/9/12 10/10/13 6/5/7
f 11/11/14 12/12/15 13/13/16
f 12/12/15 11/11/14 5/6/9
f 7/7/10 5/6/9 11/11/14
f 14/14/17 15/15/18 12/12/15
f 12/12/15 5/6/9 14/14/17
f 6/5/7 14/14/17 5/6/9
f 14/14/17 16/16/19 15/15/18
f 16/16/19 14/14/17 17/17/20
f 18/18/21 17/17/20 14/14/17
f 17/17/20 18/18/21 19/19/22
f 20/20/23 19/19/22 18/18/24
f 12/12/15 21/21/25 13/13/16
f 21/21/25 12/12/15 15/15/18
f 16/16/19 22/22/26 15/15/18
f 22/22/26 16/16/19 23/23/27
f 21/21/25 22/22/26 24/24/28
f 22/22/26 21/21/29 15/15/30
f 23/23/27 25/25/31 22/22/26
f 25/25/31 23/23/27 26/26/32
f 27/27/33 24/24/28 25/25/34
f 2/3/3 8/8/11 4/4/4
f 28/28/35 3/2/2 1/1/1
f 3/2/2 28/28/35 9/9/12
f 25/25/31 29/29/36 27/27/33
f 29/29/36 25/25/31 26/26/32
f 24/24/28 22/22/26 25/25/34
f 30/30/37 31/31/38 32/32/39
f 13/33/16 34/34/40 33/35/41
f 33/35/41 35/36/42 13/33/16
f 11/37/14 13/33/16 35/36/42
f 35/36/42 7/38/10 11/37/14
f 36/39/43 37/40/44 34/34/45
f 37/40/44 36/39/43 38/41/46
f 39/42/47 38/41/46 36/39/43
f 21/43/25 40/44/48 34/34/49
f 34/34/49 13/33/16 21/43/25
f 34/34/49 39/42/50 36/39/43
f 39/42/50 34/34/49 40/44/48
f 24/45/28 41/46/51 40/44/48
f 40/44/48 21/43/25 24/45/28
f 42/47/52 39/42/47 40/44/48
f 39/42/47 42/47/52 43/48/53
f 44/49/54 43/48/53 42/47/52
f 43/48/53 44/49/54 45/50/55
f 46/51/56 45/50/55 44/49/54
f 32/32/57 33/35/58 37/40/44
f 33/35/41 32/32/39 35/36/42
f 31/31/38 35/36/42 32/32/39
f 47/52/59 35/36/42 31/31/38
f 35/36/42 47/52/59 7/38/10
f 8/53/11 7/38/10 47/52/59
f 47/52/60 1/54/5 4/55/4
f 31/31/38 28/56/35 1/54/5
f 28/56/35 31/31/38 30/30/61
f 41/46/51 27/57/33 29/58/36
f 8/53/62 47/52/59 4/55/4
f 37/40/44 33/35/41 34/34/40
f 40/44/48 41/46/51 42/47/52
f 24/45/28 27/57/33 41/46/51
f 42/47/52 41/46/51 29/58/36
f 29/58/36 44/49/54 42/47/52
f 1/54/1 47/52/59 31/31/38
f 48/59/63 10/10/64 49/60/65
f 49/60/65 50/61/66 48/59/63
f 51/62/67 6/5/7 10/10/13
f 6/5/7 51/62/67 14/14/17
f 18/18/68 14/14/17 51/62/67
f 18/18/24 52/63/69 20/20/70
f 51/62/71 52/63/69 18/18/68
f 52/63/69 51/62/71 53/64/72
f 10/10/73 53/64/72 51/62/71
f 54/65/74 16/16/19 17/17/75
f 23/23/27 16/16/19 54/65/74
f 54/65/74 55/66/76 23/23/27
f 45/67/55 54/65/74 19/19/77
f 54/65/74 45/67/55 55/66/76
f 46/68/78 55/66/76 45/67/55
f 23/23/27 55/66/76 26/26/32
f 48/59/63 50/61/66 56/69/79
f 53/64/72 48/59/63 56/69/80
f 48/59/63 53/64/72 10/10/64
f 28/28/35 49/60/65 10/10/64
f 29/29/36 55/66/81 46/68/56
f 55/66/76 29/29/36 26/26/32
f 28/28/35 10/10/13 9/9/12
f 57/70/82 30/30/37 32/32/39
f 32/32/39 58/71/83 57/70/82
f 59/72/84 57/70/82 58/71/83
f 58/71/83 53/73/72 59/72/85
f 56/74/80 59/72/85 53/73/72
f 38/41/46 20/75/23 60/76/86
f 38/41/46 43/48/53 19/77/22
f 19/77/22 20/75/23 38/41/46
f 60/76/86 20/75/23 58/71/83
f 58/71/83 32/32/57 60/76/86
f 37/40/44 60/76/86 32/32/57
f 60/76/86 37/40/44 38/41/46
f 58/71/83 52/78/69 53/73/72
f 52/78/69 58/71/83 20/75/23
f 49/79/65 59/72/85 50/80/66
f 59/72/84 49/79/87 57/70/82
f 28/56/35 57/70/82 49/79/87
f 44/49/54 29/58/36 46/51/56
f 56/74/80 50/80/66 59/72/85
f 38/41/46 39/42/50 43/48/53
f 19/77/22 43/48/53 45/50/55
f 57/70/82 28/56/35 30/30/37
f 19/19/77 54/65/74 17/17/75
f 61/81/88 62/82/89 63/83/90
f 62/82/89 61/81/91 64/84/92
f 65/85/93 64/84/92 61/81/91
f 64/84/92 65/85/93 66/86/94
f 67/87/95 66/86/96 65/85/97
f 68/88/98 70/89/99 69/90/100
f 69/90/100 61/81/88 68/88/98
f 71/91/101 68/88/98 61/81/88
f 61/81/88 63/83/90 71/91/101
f 72/92/102 64/84/103 66/86/96
f 64/84/104 72/92/105 73/93/106
f 72/92/102 65/85/97 73/93/106
f 69/90/100 70/89/99 73/93/107
f 65/85/93 61/81/108 73/93/106
f 61/81/88 69/90/100 73/93/106
f 67/87/95 65/85/97 72/92/102
f 72/92/102 66/86/96 67/87/95
f 74/94/109 63/83/90 70/89/99
f 70/89/99 64/84/104 75/95/110
f 64/84/104 70/89/99 62/82/111
f 63/83/90 62/82/111 70/89/99
f 73/93/106 75/95/112 64/84/104
f 68/88/98 74/94/109 70/89/99
f 70/89/113 75/95/112 73/93/107
f 76/96/114 77/97/115 78/98/116
f 77/97/115 76/96/114 79/99/117
f 80/100/118 79/99/117 76/96/114
f 79/99/117 80/100/118 81/101/119
f 82/102/120 81/101/121 80/100/118
f 83/103/122 85/104/123 84/105/124
f 84/105/124 76/96/114 83/103/122
f 86/106/125 83/103/122 76/96/114
f 76/96/114 78/98/116 86/106/125
f 87/107/126 79/99/127 81/101/121
f 79/99/128 87/107/126 88/108/129
f 87/107/126 80/100/118 88/108/129
f 84/105/124 85/104/123 88/108/129
f 80/100/118 76/96/130 88/108/131
f 76/96/114 84/105/124 88/108/129
f 82/102/120 80/100/118 87/107/126
f 87/107/126 81/101/121 82/102/120
f 89/109/132 78/98/116 85/104/123
f 85/104/123 79/99/128 90/110/133
f 79/99/128 85/104/123 77/97/134
f 78/98/135 77/97/134 85/104/123
f 88/108/129 90/110/133 79/99/128
f 83/103/122 89/109/136 85/104/123
f 85/104/123 90/110/133 88/108/129
f 91/111/137 92/112/138 93/113/139
f 92/112/138 91/111/137 94/114/140
f 95/115/141 94/114/140 91/111/137
f 94/114/140 95/115/141 96/116/142
f 97/117/143 96/116/144 95/115/145
f 98/118/146 100/119/147 99/120/148
f 99/120/148 91/111/137 98/118/146
f 101/121/149 98/118/146 91/111/137
f 91/111/137 93/113/139 101/121/149
f 102/122/150 94/114/140 96/116/144
f 94/114/140 102/122/150 103/123/151
f 102/122/150 95/115/145 103/123/151
f 99/120/148 100/119/147 103/123/152
f 95/115/141 91/111/137 103/123/151
f 91/111/137 99/120/148 103/123/153
f 97/117/143 95/115/145 102/122/150
f 102/122/150 96/116/144 97/117/143
f 104/124/154 93/113/139 100/119/155
f 100/119/147 94/114/140 105/125/156
f 94/114/140 100/119/147 92/112/157
f 93/113/139 92/112/157 100/119/147
f 103/123/151 105/125/156 94/114/140
f 98/118/146 104/124/154 100/119/147
f 100/119/158 105/125/159 103/123/151
f 106/126/160 107/127/161 108/128/162
f 107/127/161 106/126/163 109/129/164
f 110/130/165 109/129/164 106/126/163
f 109/129/164 110/130/165 111/131/166
f 112/132/167 111/131/166 110/130/165
f 113/133/168 115/134/169 114/135/170
f 114/135/170 106/126/160 113/133/168
f 116/136/171 113/133/168 106/126/160
f 106/126/160 108/128/162 116/136/171
f 117/137/172 109/129/173 111/131/166
f 109/129/173 117/137/172 118/138/174
f 117/137/172 110/130/165 118/138/174
f 114/135/170 115/134/169 118/138/174
f 110/130/175 106/126/163 118/138/174
f 106/126/160 114/135/170 118/138/174
f 112/132/167 110/130/165 117/137/172
f 117/137/172 111/131/166 112/132/167
f 119/139/176 108/128/177 115/134/169
f 115/134/169 109/129/173 120/140/178
f 109/129/173 115/134/169 107/127/161
f 108/128/162 107/127/161 115/134/169
f 118/138/174 120/140/179 109/129/173
f 113/133/168 119/139/180 115/134/169
f 115/134/169 120/140/178 118/138/174
